<svg xmlns="http://www.w3.org/2000/svg" version="1.1" xmlns:xlink="http://www.w3.org/1999/xlink" xmlns:svgjs="http://svgjs.dev/svgjs" viewBox="0 0 800 800" opacity="1"><defs><symbol id="bbburst-shape-1" viewBox="0 0 194 167"><path d="m97 0 96.129 166.5H.871L97 0Z"></path></symbol><symbol id="bbburst-shape-4" viewBox="0 0 149 143"><path d="M71.647 2.781c.898-2.764 4.808-2.764 5.706 0l15.445 47.534a3 3 0 0 0 2.853 2.073h49.98c2.906 0 4.115 3.719 1.764 5.427L106.96 87.193a2.999 2.999 0 0 0-1.09 3.354l15.445 47.534c.898 2.764-2.266 5.062-4.617 3.354l-40.435-29.378a3 3 0 0 0-3.526 0l-40.435 29.378c-2.351 1.708-5.515-.59-4.617-3.354L43.13 90.547a3 3 0 0 0-1.09-3.354L1.605 57.815c-2.35-1.708-1.142-5.427 1.764-5.427h49.98a3 3 0 0 0 2.853-2.073L71.647 2.781Z"></path></symbol><symbol id="bbburst-shape-6" viewBox="0 0 133 116"><path d="M59.7487 10.2513c-13.6683-13.66839-35.8291-13.66839-49.4974 0-13.66839 13.6683-13.66839 35.8291 0 49.4974l49.4974-49.4974ZM66.5 66.5 41.7513 91.2487 66.5 115.997l24.7487-24.7483L66.5 66.5Zm56.249-6.7513c13.668-13.6683 13.668-35.8291 0-49.4974-13.669-13.66839-35.8294-13.66839-49.4977 0l49.4977 49.4974Zm-112.4977 0 31.5 31.5 49.4974-49.4974-31.5-31.5-49.4974 49.4974Zm80.9974 31.5 31.5003-31.5-49.4977-49.4974-31.5 31.5 49.4974 49.4974Z"></path></symbol><symbol id="bbburst-shape-8" viewBox="0 0 87 168"><path d="m12 12 31.2546 18.0749c16.4102 9.4902 20.014 31.6325 7.4603 45.8369L36.3296 92.1884c-12.5684 14.2206-8.9394 36.3916 7.5068 45.8636L75 156" stroke-width="14" stroke-linecap="round" stroke-linejoin="round"></path></symbol><symbol id="bbburst-shape-10" viewBox="0 0 145 145"><circle cx="72.5" cy="72.5" r="61.5" fill="none" stroke-width="22"></circle></symbol></defs><use xlink:href="#bbburst-shape-10" width="33.66182752317798" opacity="0.29785143044241524" transform="matrix(0.9258062173213851,-0.3779984761464896,0.3779984761464896,0.9258062173213851,523.020149239421,161.9364848381431)" fill="none" stroke="#ffa6d5"></use><use xlink:href="#bbburst-shape-10" width="20.343234660627232" opacity="0.7704354786501324" transform="matrix(0.9953756165984882,0.09605926233934704,-0.09605926233934704,0.9953756165984882,453.743093158616,100.99424777562183)" fill="none" stroke="#2c2891"></use><use xlink:href="#bbburst-shape-1" width="37.857720199584726" opacity="0.18022904168187337" transform="matrix(0.8150582575895112,0.5793790095741733,-0.5793790095741733,0.8150582575895112,976.7864116005856,141.35047362892948)" fill="#ffbd9b"></use><use xlink:href="#bbburst-shape-1" width="18.246017089136178" opacity="0.8229129133341588" transform="matrix(0.768465067957862,-0.6398917403190313,0.6398917403190313,0.768465067957862,216.17805586512475,107.89021107036376)" fill="#2c2891"></use><use xlink:href="#bbburst-shape-4" width="32.72422756539743" opacity="0.4884702659697461" transform="matrix(0.9909730009128362,0.1340615957752552,-0.1340615957752552,0.9909730009128362,638.6120573441763,-110.36964392476085)" fill="#ff5c58"></use><use xlink:href="#bbburst-shape-10" width="48.4524306627794" opacity="0.15694182492931696" transform="matrix(0.9997656631736367,0.021647603538922738,-0.021647603538922738,0.9997656631736367,117.40984028210718,269.05393165208153)" fill="none" stroke="#ffa6d5"></use><use xlink:href="#bbburst-shape-1" width="34.38722495458653" opacity="0.3179800182283168" transform="matrix(0.7643195348597671,-0.6448376916959407,0.6448376916959407,0.7643195348597671,-63.137855375382,-133.9697098090742)" fill="#2c2891"></use><use xlink:href="#bbburst-shape-10" width="17.54989433868736" opacity="0.7907297543694525" transform="matrix(0.9413418264769788,-0.3374545387529786,0.3374545387529786,0.9413418264769788,336.4300865465707,76.63043120807913)" fill="none" stroke="#ffbd9b"></use><use xlink:href="#bbburst-shape-1" width="33.39884280449503" opacity="0.43453498937672563" transform="matrix(0.7209920144434108,-0.6929433707806378,0.6929433707806378,0.7209920144434108,-126.80247004252061,32.163568555225766)" fill="#ffa6d5"></use><use xlink:href="#bbburst-shape-6" width="43.65589352703422" opacity="0.16490879039214112" transform="matrix(0.8061463097194909,0.591716255755786,-0.591716255755786,0.8061463097194909,903.5091974243476,310.2362869077139)" fill="#00a19d"></use><use xlink:href="#bbburst-shape-6" width="34.98403259245138" opacity="0.23599734736760092" transform="matrix(0.9766414933461501,0.21487529749741296,-0.21487529749741296,0.9766414933461501,539.5456697705982,-330.87244826881386)" fill="#2c2891"></use><use xlink:href="#bbburst-shape-10" width="23.681950792004585" opacity="0.6616089651964392" transform="matrix(0.8748717010935289,0.4843547322218655,-0.4843547322218655,0.8748717010935289,431.1273532504256,46.83171710853577)" fill="none" stroke="#ffbd9b"></use><use xlink:href="#bbburst-shape-10" width="21.7184042997413" opacity="0.6197629994504834" transform="matrix(0.994967447679746,0.1001986928939297,-0.1001986928939297,0.994967447679746,564.1569527228238,-104.3571766223049)" fill="none" stroke="#ffa6d5"></use><use xlink:href="#bbburst-shape-4" width="24.22094766132375" opacity="0.5141888329876612" transform="matrix(0.8145078540001168,-0.5801525280235572,0.5801525280235572,0.8145078540001168,76.86840589842359,284.2085808618124)" fill="#2c2891"></use><use xlink:href="#bbburst-shape-1" width="16.608284506648445" opacity="0.9461589800379256" transform="matrix(0.9998105769067855,0.0194630497435719,-0.0194630497435719,0.9998105769067855,408.3315236677658,-22.619025860824877)" fill="#ffbd9b"></use><use xlink:href="#bbburst-shape-4" width="39.57779849019548" opacity="0.3883570865304441" transform="matrix(0.9728098731989954,-0.2316051610101868,0.2316051610101868,0.9728098731989954,21.559983459149038,84.08657093034037)" fill="#00a19d"></use><use xlink:href="#bbburst-shape-10" width="29.83964621710195" opacity="0.4330723398343662" transform="matrix(0.7810481649735264,-0.624470787140189,0.624470787140189,0.7810481649735264,312.2160460000685,-89.99263913020343)" fill="none" stroke="#ffa6d5"></use><use xlink:href="#bbburst-shape-1" width="38.10278666471542" opacity="0.28376501781614505" transform="matrix(0.8465909428974374,0.5322440938178908,-0.5322440938178908,0.8465909428974374,863.7726110642576,-129.22319343569188)" fill="#00a19d"></use><use xlink:href="#bbburst-shape-4" width="39.17478852062433" opacity="0.23259481981390284" transform="matrix(0.9912105188006963,0.13229401883250222,-0.13229401883250222,0.9912105188006963,632.9847024447008,282.84502241870933)" fill="#00a19d"></use><use xlink:href="#bbburst-shape-10" width="38.14722042112023" opacity="0.3484261912775837" transform="matrix(0.9790324121768967,0.2037045308948401,-0.2037045308948401,0.9790324121768967,237.57744003838965,192.23068784789695)" fill="none" stroke="#ff5c58"></use><use xlink:href="#bbburst-shape-6" width="13.787034105785727" opacity="0.8171010586524264" transform="matrix(0.735135496273394,-0.6779202033564649,0.6779202033564649,0.735135496273394,199.54168636340194,78.49699789641261)" fill="#00a19d"></use><use xlink:href="#bbburst-shape-1" width="35.79109648178543" opacity="0.31026881245431703" transform="matrix(0.9828844644698389,0.1842230428145133,-0.1842230428145133,0.9828844644698389,291.7739309713732,266.9099788974706)" fill="#00a19d"></use><use xlink:href="#bbburst-shape-8" width="19.692980604078333" opacity="0.6125790829161426" transform="matrix(0.9970836996862105,0.07631576390274092,-0.07631576390274092,0.9970836996862105,312.9007342233001,-136.59482043406598)" fill="none" stroke="#00a19d"></use><use xlink:href="#bbburst-shape-10" width="41.30290465254338" opacity="0.17399084941871024" transform="matrix(0.974835877945813,0.22292377860967663,-0.22292377860967663,0.974835877945813,109.24778229249641,-87.8929584361328)" fill="none" stroke="#2c2891"></use><use xlink:href="#bbburst-shape-4" width="21.101434532426858" opacity="0.667192280917234" transform="matrix(0.9765571117144282,-0.21525846687174421,0.21525846687174421,0.9765571117144282,437.37111386137747,78.99956921454674)" fill="#2c2891"></use><use xlink:href="#bbburst-shape-4" width="44.234076927755154" opacity="0.13290452841100364" transform="matrix(0.9625034730824943,-0.2712693574735934,0.2712693574735934,0.9625034730824943,525.3502994111897,-274.18619390259727)" fill="#ffa6d5"></use><use xlink:href="#bbburst-shape-6" width="37.80633678995719" opacity="0.1524458094503479" transform="matrix(0.9845944759646418,0.17485341832492826,-0.17485341832492826,0.9845944759646418,178.8229037761479,-263.98666017302327)" fill="#ffbd9b"></use><use xlink:href="#bbburst-shape-4" width="55.262655621174844" opacity="-0.07436812522160396" transform="matrix(0.9938861807581192,0.11040950909246551,-0.11040950909246551,0.9938861807581192,761.0847071585416,338.7605322848444)" fill="#ffa6d5"></use><use xlink:href="#bbburst-shape-1" width="40.71503150767508" opacity="0.3651216742378295" transform="matrix(0.8727321329680466,0.4881993691977119,-0.4881993691977119,0.8727321329680466,509.3139127446601,318.45654368128095)" fill="#2c2891"></use><use xlink:href="#bbburst-shape-4" width="38.85629098065144" opacity="0.06541139619774428" transform="matrix(0.9407560819267251,0.3390840519957802,-0.3390840519957802,0.9407560819267251,158.46078437055877,-202.12245731823234)" fill="#00a19d"></use><use xlink:href="#bbburst-shape-10" width="34.763538819670174" opacity="0.22938977008879613" transform="matrix(0.819637194368228,-0.5728829458171885,0.5728829458171885,0.819637194368228,503.01770903861967,66.37194960100504)" fill="none" stroke="#2c2891"></use><use xlink:href="#bbburst-shape-6" width="16.23119511243143" opacity="0.8356673675853388" transform="matrix(0.812257253350705,0.5832993694314855,-0.5832993694314855,0.812257253350705,611.4118323122416,-1.982831457473992)" fill="#ffa6d5"></use><use xlink:href="#bbburst-shape-4" width="26.138006320946687" opacity="0.5840603297689373" transform="matrix(0.9594506209715508,0.2818767566105898,-0.2818767566105898,0.9594506209715508,684.7924616653394,43.56050841110613)" fill="#00a19d"></use><use xlink:href="#bbburst-shape-4" width="14.0707790854925" opacity="0.91699552648092" transform="matrix(0.8355011327071163,-0.5494887234922347,0.5494887234922347,0.8355011327071163,156.05283951802502,37.103214172038406)" fill="#2c2891"></use><use xlink:href="#bbburst-shape-10" width="26.404526344870927" opacity="0.7174839568714027" transform="matrix(0.9976106881227768,-0.06908628621658527,0.06908628621658527,0.9976106881227768,486.07995029240715,9.789606930215825)" fill="none" stroke="#ff5c58"></use><use xlink:href="#bbburst-shape-4" width="15.20168599740932" opacity="0.8946072083461504" transform="matrix(0.8694291777251948,0.4940575927157599,-0.4940575927157599,0.8694291777251948,545.6068924453998,34.77174916061011)" fill="#00a19d"></use><use xlink:href="#bbburst-shape-6" width="30.22584119158391" opacity="0.5101860397343767" transform="matrix(0.9577774720828534,0.2875105458423725,-0.2875105458423725,0.9577774720828534,280.1178580190232,14.001652709124585)" fill="#ff5c58"></use><use xlink:href="#bbburst-shape-10" width="39.478326845006386" opacity="0.34936033774609654" transform="matrix(0.9987294457975868,-0.050393393384899066,0.050393393384899066,0.9987294457975868,478.28295699283575,269.39147631334004)" fill="none" stroke="#2c2891"></use><use xlink:href="#bbburst-shape-6" width="27.767973610455215" opacity="0.572472180237835" transform="matrix(0.9868059768193272,-0.1619072701074702,0.1619072701074702,0.9868059768193272,510.47500014861595,-28.738960590580575)" fill="#00a19d"></use><use xlink:href="#bbburst-shape-10" width="20.037832629071335" opacity="0.6533670644510456" transform="matrix(0.989149776871082,-0.1469105813612103,0.1469105813612103,0.989149776871082,387.7401119715632,151.23777541827207)" fill="none" stroke="#00a19d"></use><use xlink:href="#bbburst-shape-4" width="41.32784132834348" opacity="0.1699403946639877" transform="matrix(0.7287982910657569,0.6847284505113194,-0.6847284505113194,0.7287982910657569,1014.3575592113507,-20.119396903193717)" fill="#00a19d"></use><use xlink:href="#bbburst-shape-1" width="18.73850082625471" opacity="0.6005587774059182" transform="matrix(0.8773341142894973,-0.4798800390762918,0.4798800390762918,0.8773341142894973,328.3265627957318,179.28425743130026)" fill="#2c2891"></use><use xlink:href="#bbburst-shape-6" width="28.727667156725595" opacity="0.495649078698303" transform="matrix(0.9998875361064636,0.014997171031411566,-0.014997171031411566,0.9998875361064636,385.73552537212186,226.71107354001805)" fill="#ffa6d5"></use><use xlink:href="#bbburst-shape-4" width="27.011637122208725" opacity="0.3567966889717322" transform="matrix(0.9834174894764441,0.18135611760248904,-0.18135611760248904,0.9834174894764441,368.86083312352457,-270.75600635784576)" fill="#00a19d"></use><use xlink:href="#bbburst-shape-1" width="40.03987910422374" opacity="0.34500530120978146" transform="matrix(0.7322887620740443,-0.6809942502988288,0.6809942502988288,0.7322887620740443,143.79390283968365,413.8879417067255)" fill="#2c2891"></use><use xlink:href="#bbburst-shape-10" width="25.63115955781008" opacity="0.7091776050317049" transform="matrix(0.9977987214404873,-0.06631524328334142,0.06631524328334142,0.9977987214404873,402.7382508471866,-122.19955277864716)" fill="none" stroke="#ffa6d5"></use><use xlink:href="#bbburst-shape-6" width="44.03020172838418" opacity="0.4283631432094859" transform="matrix(0.967581428296308,-0.2525592596126234,0.2525592596126234,0.967581428296308,270.98340983877097,-238.62150136448685)" fill="#ffa6d5"></use><use xlink:href="#bbburst-shape-10" width="21.05376807296523" opacity="0.6277839239800682" transform="matrix(0.9960733258286217,0.08853208216634435,-0.08853208216634435,0.9960733258286217,414.57510564329016,167.81572181253472)" fill="none" stroke="#2c2891"></use><use xlink:href="#bbburst-shape-6" width="32.01100970789307" opacity="0.10464373941969252" transform="matrix(0.7611101220672891,-0.6486226808297072,0.6486226808297072,0.7611101220672891,304.6552373507487,-256.360405514136)" fill="#00a19d"></use><use xlink:href="#bbburst-shape-1" width="26.71886557399499" opacity="0.6320405228380894" transform="matrix(0.9674999609263957,0.252871164048855,-0.252871164048855,0.9674999609263957,349.29877233774107,-80.45450822313745)" fill="#00a19d"></use><use xlink:href="#bbburst-shape-4" width="29.329508604237375" opacity="0.44757923371561925" transform="matrix(0.9717394180780544,0.23605614449389814,-0.23605614449389814,0.9717394180780544,560.307395182084,-227.44840895140536)" fill="#00a19d"></use><use xlink:href="#bbburst-shape-4" width="15.457972478682679" opacity="0.8185990103820815" transform="matrix(0.8389333053773171,-0.5442342410476294,0.5442342410476294,0.8389333053773171,198.45507081698918,-9.78746573345228)" fill="#2c2891"></use><use xlink:href="#bbburst-shape-4" width="27.018517512185596" opacity="0.6382405699679556" transform="matrix(0.7642917245847481,0.6448706534889547,-0.6448706534889547,0.7642917245847481,520.6715625270846,187.51403902541477)" fill="#00a19d"></use><use xlink:href="#bbburst-shape-10" width="15.82640898722521" opacity="0.8569667980030768" transform="matrix(0.8476105785695102,0.5306187964038405,-0.5306187964038405,0.8476105785695102,623.6061584084816,118.53443673017927)" fill="none" stroke="#00a19d"></use><use xlink:href="#bbburst-shape-4" width="24.20238177767022" opacity="0.4938434164745734" transform="matrix(0.910935716768144,0.41254832434044353,-0.41254832434044353,0.910935716768144,408.98936849822167,206.30964997610795)" fill="#ffa6d5"></use><use xlink:href="#bbburst-shape-1" width="37.79696031263936" opacity="0.05249654395374048" transform="matrix(0.8290738500208118,0.5591391161523833,-0.5591391161523833,0.8290738500208118,249.77373154000935,289.14345491548494)" fill="#2c2891"></use><use xlink:href="#bbburst-shape-6" width="25.29206729894878" opacity="0.7103524185468209" transform="matrix(0.9778035718019035,0.20952368594371304,-0.20952368594371304,0.9778035718019035,593.2426776752322,-40.18178561071551)" fill="#00a19d"></use><use xlink:href="#bbburst-shape-6" width="18.492510157074815" opacity="0.7424663686943334" transform="matrix(0.8791584917487506,0.4765294811300366,-0.4765294811300366,0.8791584917487506,659.8935871764318,-42.31369457064875)" fill="#ffbd9b"></use><use xlink:href="#bbburst-shape-10" width="21.486043924353787" opacity="0.7434038300860584" transform="matrix(0.7789293723314279,0.6271116590523316,-0.6271116590523316,0.7789293723314279,551.852724859822,10.13539737639104)" fill="none" stroke="#00a19d"></use><use xlink:href="#bbburst-shape-4" width="16.688717932852576" opacity="0.8929194644843036" transform="matrix(0.8010003069259617,0.5986639360313224,-0.5986639360313224,0.8010003069259617,613.9529314669005,118.97566027903224)" fill="#2c2891"></use><use xlink:href="#bbburst-shape-1" width="26.82797509231091" opacity="0.35836923547962996" transform="matrix(0.811585992369345,0.5842329817717119,-0.5842329817717119,0.811585992369345,336.16405209043717,32.70176450455699)" fill="#ffa6d5"></use><use xlink:href="#bbburst-shape-8" width="14.070374845889225" opacity="0.9105192825240255" transform="matrix(0.999970035780709,-0.007741288053517228,0.007741288053517228,0.999970035780709,429.9553808145975,-3.7307019457658726)" fill="none" stroke="#00a19d"></use><use xlink:href="#bbburst-shape-6" width="41.54826358091769" opacity="-0.08469785178847156" transform="matrix(0.9630271649586054,0.26940430499862283,-0.26940430499862283,0.9630271649586054,141.4409628569357,-334.7860313058445)" fill="#ffbd9b"></use><use xlink:href="#bbburst-shape-1" width="27.431610757924723" opacity="0.47614326869362367" transform="matrix(0.9121968557023568,0.4097522378788599,-0.4097522378788599,0.9121968557023568,430.25010960504267,-172.704118130471)" fill="#2c2891"></use><use xlink:href="#bbburst-shape-10" width="33.000190038386044" opacity="0.2061121639055722" transform="matrix(0.8927462911125229,-0.45055971824480096,0.45055971824480096,0.8927462911125229,184.50203953839835,-306.3225907537027)" fill="none" stroke="#00a19d"></use><use xlink:href="#bbburst-shape-6" width="37.30389887204227" opacity="0.25135060905247086" transform="matrix(0.9777431309941442,0.20980555234256268,-0.20980555234256268,0.9777431309941442,167.05869366834824,160.93380440764992)" fill="#2c2891"></use><use xlink:href="#bbburst-shape-8" width="20.921960862309238" opacity="0.7258097296441647" transform="matrix(0.9948044442142093,0.1018043111644009,-0.1018043111644009,0.9948044442142093,372.75792930584436,-108.12513532511423)" fill="none" stroke="#00a19d"></use><use xlink:href="#bbburst-shape-6" width="14.210105977247553" opacity="0.956375471386906" transform="matrix(0.7550218052653864,-0.6556996824566845,0.6556996824566845,0.7550218052653864,140.1462087479145,120.66924877196624)" fill="#2c2891"></use><use xlink:href="#bbburst-shape-4" width="30.807780381068106" opacity="0.4660624669266963" transform="matrix(0.8422652908606174,0.5390632428681068,-0.5390632428681068,0.8422652908606174,413.98023058821894,-93.98000467922276)" fill="#ffbd9b"></use><use xlink:href="#bbburst-shape-1" width="43.54136736394279" opacity="0.062379071889907434" transform="matrix(0.916534555532008,0.399955508170277,-0.399955508170277,0.916534555532008,893.1876632248291,-206.11004946937794)" fill="#00a19d"></use><use xlink:href="#bbburst-shape-10" width="17.944237792146804" opacity="0.7347279572728731" transform="matrix(0.7773558747257431,-0.6290610813183207,0.6290610813183207,0.7773558747257431,29.224386362841358,135.52039477989672)" fill="none" stroke="#2c2891"></use><use xlink:href="#bbburst-shape-6" width="32.58397630228109" opacity="0.5926590520411288" transform="matrix(0.7088215730551496,-0.7053878206856306,0.7053878206856306,0.7088215730551496,127.63682950014942,-54.093209185490025)" fill="#00a19d"></use><use xlink:href="#bbburst-shape-6" width="30.169011981324836" opacity="0.19608463317589286" transform="matrix(0.8021031997842879,-0.5971854459845841,0.5971854459845841,0.8021031997842879,134.13792877815723,449.6226361159433)" fill="#2c2891"></use><use xlink:href="#bbburst-shape-1" width="14.021782407278854" opacity="0.8185225424377276" transform="matrix(0.9987140921746882,-0.050696766087082186,0.050696766087082186,0.9987140921746882,295.356884528183,-25.266450845019165)" fill="#00a19d"></use><use xlink:href="#bbburst-shape-4" width="24.67962043316691" opacity="0.5891737824637129" transform="matrix(0.8708541455650035,-0.4915415111180822,0.4915415111180822,0.8708541455650035,16.0979139566397,112.58475818606706)" fill="#ffa6d5"></use><use xlink:href="#bbburst-shape-1" width="38.44788609735461" opacity="0.1726395468523737" transform="matrix(0.7317214690631406,-0.6816037644497567,0.6816037644497567,0.7317214690631406,-3.572992434494779,473.9349767404191)" fill="#ffbd9b"></use><use xlink:href="#bbburst-shape-4" width="18.16233202830561" opacity="0.8089582689305921" transform="matrix(0.8828404881099261,0.4696729421137942,-0.4696729421137942,0.8828404881099261,551.4538361887307,123.75882861614355)" fill="#00a19d"></use><use xlink:href="#bbburst-shape-4" width="39.74641298970576" opacity="0.21426414110812086" transform="matrix(0.7659326709963593,0.6429207910002466,-0.6429207910002466,0.7659326709963593,288.63813658006234,95.33581505286026)" fill="#ffa6d5"></use><use xlink:href="#bbburst-shape-10" width="19.811860779328196" opacity="0.5834401633734659" transform="matrix(0.7262046514964751,0.6874785844990978,-0.6874785844990978,0.7262046514964751,488.4777429542223,48.094987445708284)" fill="none" stroke="#2c2891"></use><use xlink:href="#bbburst-shape-6" width="28.239741183485364" opacity="0.1587343170747233" transform="matrix(0.9868804062408439,0.16145297698682057,-0.16145297698682057,0.9868804062408439,87.95233279990026,111.44807028086689)" fill="#2c2891"></use><use xlink:href="#bbburst-shape-4" width="13.258948016248318" opacity="0.8273810302081929" transform="matrix(0.7733002884724627,0.6340399544574506,-0.6340399544574506,0.7733002884724627,571.6470870858636,97.9044864449873)" fill="#ffa6d5"></use><use xlink:href="#bbburst-shape-6" width="51.445423446898054" opacity="-0.08488275659620448" transform="matrix(0.9999950069923547,-0.0031600617653149464,0.0031600617653149464,0.9999950069923547,30.015860050154604,347.4874175690332)" fill="#00a19d"></use><use xlink:href="#bbburst-shape-6" width="29.686929405389463" opacity="0.49216884703881725" transform="matrix(0.9108130893260917,-0.4128189873446483,0.4128189873446483,0.9108130893260917,24.416138969741013,157.72997103094474)" fill="#ffa6d5"></use><use xlink:href="#bbburst-shape-6" width="14.199770232511106" opacity="0.9383689002285123" transform="matrix(0.877164959942386,0.48018916381908533,-0.48018916381908533,0.877164959942386,559.9131869361152,55.55185170874745)" fill="#2c2891"></use><use xlink:href="#bbburst-shape-6" width="37.17595485228853" opacity="0.38237317082225386" transform="matrix(0.893657210219259,0.44875025417611863,-0.44875025417611863,0.893657210219259,831.0094238270644,-38.99858830697207)" fill="#00a19d"></use><use xlink:href="#bbburst-shape-8" width="15.353152733138522" opacity="0.8666881613837905" transform="matrix(0.9918512226572592,-0.12740153889690664,0.12740153889690664,0.9918512226572592,380.6462233435507,-41.155887818387214)" fill="none" stroke="#2c2891"></use><use xlink:href="#bbburst-shape-4" width="40.67829881239333" opacity="0.30443790941668936" transform="matrix(0.9805577991557954,-0.196230483143529,0.196230483143529,0.9805577991557954,462.46594250462283,-256.6799074124473)" fill="#ffa6d5"></use><use xlink:href="#bbburst-shape-10" width="16.065495408076124" opacity="0.7306782724540157" transform="matrix(0.7492299704285199,0.6623099360659473,-0.6623099360659473,0.7492299704285199,541.054072027144,66.71785776897292)" fill="none" stroke="#ffa6d5"></use><use xlink:href="#bbburst-shape-6" width="31.90519495380294" opacity="0.06874524535149507" transform="matrix(0.7808497778895596,0.6247188362534185,-0.6247188362534185,0.7808497778895596,415.9151206191252,433.4275460503611)" fill="#ffa6d5"></use><use xlink:href="#bbburst-shape-10" width="12.86788333728207" opacity="0.8386082893400939" transform="matrix(0.9805461833558802,0.19628851801930927,-0.19628851801930927,0.9805461833558802,414.25409036889664,50.29165691145437)" fill="none" stroke="#ff5c58"></use><use xlink:href="#bbburst-shape-8" width="27.62912501593452" opacity="0.48253832438205735" transform="matrix(0.9229408455758583,0.3849418080278105,-0.3849418080278105,0.9229408455758583,677.7409482131557,214.14996455735974)" fill="none" stroke="#ff5c58"></use><use xlink:href="#bbburst-shape-6" width="35.79166121576631" opacity="0.5162554523107263" transform="matrix(0.8820633962536183,-0.4711307302538567,0.4711307302538567,0.8820633962536183,259.02953352181396,263.8947232511161)" fill="#00a19d"></use><use xlink:href="#bbburst-shape-4" width="30.659018491149983" opacity="0.27438538545063373" transform="matrix(0.7758556750284598,0.6309104306683581,-0.6309104306683581,0.7758556750284598,354.9619967683127,-78.46759676027702)" fill="#ffa6d5"></use><use xlink:href="#bbburst-shape-4" width="39.40284952932427" opacity="0.1716476481756828" transform="matrix(0.8922699401406703,-0.4515023299179803,0.4515023299179803,0.8922699401406703,305.06546617068284,410.19884102065413)" fill="#2c2891"></use><use xlink:href="#bbburst-shape-1" width="34.89403992593333" opacity="0.3714177281143439" transform="matrix(0.773949394129332,-0.6332474518913124,0.6332474518913124,0.773949394129332,346.8595265545719,286.8996743368041)" fill="#ff5c58"></use><use xlink:href="#bbburst-shape-6" width="18.262245923099" opacity="0.7511452226558903" transform="matrix(0.9936479612562359,-0.1125332354965675,0.1125332354965675,0.9936479612562359,270.6209288265962,86.46350450578069)" fill="#ffa6d5"></use><use xlink:href="#bbburst-shape-1" width="29.455641576309134" opacity="0.41785324052205153" transform="matrix(0.982638971142843,-0.1855280366719134,0.1855280366719134,0.982638971142843,571.9354975741011,36.316902428058256)" fill="#ffbd9b"></use><use xlink:href="#bbburst-shape-10" width="14.078307133741925" opacity="0.83139336939835" transform="matrix(0.9560211204047208,-0.293297830438792,0.293297830438792,0.9560211204047208,225.94100069723794,-37.40245106067874)" fill="none" stroke="#ffbd9b"></use><use xlink:href="#bbburst-shape-6" width="43.90429369822735" opacity="0.0659275420132649" transform="matrix(0.8424934358973414,-0.5387066088975448,0.5387066088975448,0.8424934358973414,-61.77403983801736,-278.42458872469973)" fill="#ff5c58"></use><use xlink:href="#bbburst-shape-10" width="19.41702843117976" opacity="0.6509394484522912" transform="matrix(0.9480540342419947,-0.31810933365350774,0.31810933365350774,0.9480540342419947,188.16435639792155,161.67078774636468)" fill="none" stroke="#00a19d"></use><use xlink:href="#bbburst-shape-6" width="19.061420861947603" opacity="0.7202750364029746" transform="matrix(0.961770776835978,-0.2738557518554604,0.2738557518554604,0.961770776835978,269.36046573890326,-107.40760017763552)" fill="#ff5c58"></use><use xlink:href="#bbburst-shape-6" width="16.90591167378563" opacity="0.8790799530964676" transform="matrix(0.9790079690401868,0.20382197270119948,-0.20382197270119948,0.9790079690401868,514.7859111304065,41.829798264772876)" fill="#2c2891"></use><use xlink:href="#bbburst-shape-10" width="22.871462911332777" opacity="0.7331120093241681" transform="matrix(0.9801036667179324,-0.19848627782812622,0.19848627782812622,0.9801036667179324,385.35775916068,103.25480285672927)" fill="none" stroke="#ffa6d5"></use><use xlink:href="#bbburst-shape-8" width="34.10600058125381" opacity="0.5796391690241318" transform="matrix(0.9363847413828619,-0.3509752357437073,0.3509752357437073,0.9363847413828619,193.17064247072088,-150.87360433252107)" fill="none" stroke="#2c2891"></use><use xlink:href="#bbburst-shape-4" width="17.569506183983332" opacity="0.7296810879050577" transform="matrix(0.9929185964253116,-0.11879672079981507,0.11879672079981507,0.9929185964253116,325.7167486478485,124.18980074129888)" fill="#2c2891"></use><use xlink:href="#bbburst-shape-10" width="38.892502600820606" opacity="-0.0820813841543786" transform="matrix(0.8983194865522821,0.4393428047441363,-0.4393428047441363,0.8983194865522821,896.6147092372859,-318.05545679517445)" fill="none" stroke="#ff5c58"></use><use xlink:href="#bbburst-shape-1" width="28.905149800057156" opacity="0.5866263175957674" transform="matrix(0.8460280068863187,-0.5331384544036971,0.5331384544036971,0.8460280068863187,270.16942356260745,-90.22771732209077)" fill="#ffa6d5"></use><use xlink:href="#bbburst-shape-4" width="38.27544609355513" opacity="0.05496026764146256" transform="matrix(0.7972954016611871,0.6035892995157605,-0.6035892995157605,0.7972954016611871,852.4388994165449,429.6261848230407)" fill="#ffbd9b"></use><use xlink:href="#bbburst-shape-10" width="31.847566819005642" opacity="0.49146683186348705" transform="matrix(0.982348116693308,-0.18706196200486885,0.18706196200486885,0.982348116693308,514.2119277220693,112.38226496346044)" fill="none" stroke="#ffa6d5"></use><use xlink:href="#bbburst-shape-10" width="29.92265780407603" opacity="0.07739971081630392" transform="matrix(0.8356574256540191,-0.5492510054149173,0.5492510054149173,0.8356574256540191,529.3513231128256,278.02497919549927)" fill="none" stroke="#2c2891"></use><use xlink:href="#bbburst-shape-6" width="36.69607909964204" opacity="0.17078545636242215" transform="matrix(0.992594204763476,-0.12147734220817714,0.12147734220817714,0.992594204763476,205.65086920346837,-345.4796743220477)" fill="#ffbd9b"></use></svg>