<?xml version="1.0" encoding="UTF-8" standalone="no" ?>
<!DOCTYPE svg PUBLIC "-//W3C//DTD SVG 1.1//EN" "http://www.w3.org/Graphics/SVG/1.1/DTD/svg11.dtd">
<svg xmlns="http://www.w3.org/2000/svg" xmlns:xlink="http://www.w3.org/1999/xlink" version="1.1" width="350" height="350" viewBox="0 0 400 400" xml:space="preserve">
<desc>Created with Fabric.js 5.3.0</desc>
<defs>
</defs>
<g transform="matrix(0.355817552 0 0 -0.355817552 199.0376344086 139.0176734214)" id="GkwzQHuLR6PDJ-ovfjAk3"  >
<path style="stroke: none; stroke-width: 1; stroke-dasharray: none; stroke-linecap: butt; stroke-dashoffset: 0; stroke-linejoin: miter; stroke-miterlimit: 4; fill: rgb(129,0,255); fill-rule: nonzero; opacity: 1;" vector-effect="non-scaling-stroke"  transform=" translate(-40, -40)" d="M 60 40 L 80 80 L 40 80 L 0 80 L 20 40 L 40 0 L 60 40 z" stroke-linecap="round" />
</g>
<g transform="matrix(-0.3767581613 0 0 -0.3767581613 117.7434106412 139.8552977914)" id="u_FBYDPujfiHWRQg2nF1O"  >
<path style="stroke: none; stroke-width: 1; stroke-dasharray: none; stroke-linecap: butt; stroke-dashoffset: 0; stroke-linejoin: miter; stroke-miterlimit: 4; fill: rgb(129,0,255); fill-rule: nonzero; opacity: 1;" vector-effect="non-scaling-stroke"  transform=" translate(0, 0)" d="M 20 0 L 40 40 L 0 40 L -40 40 L -20 0 L 0 -40 z" stroke-linecap="round" />
</g>
<g transform="matrix(-0.3767581613 0 0 -0.3767581613 280.4517439745 139.855297792)" id="TWBvheWhqiPPIPWN4KTl4"  >
<path style="stroke: none; stroke-width: 1; stroke-dasharray: none; stroke-linecap: butt; stroke-dashoffset: 0; stroke-linejoin: miter; stroke-miterlimit: 4; fill: rgb(129,0,255); fill-rule: nonzero; opacity: 1;" vector-effect="non-scaling-stroke"  transform=" translate(0, 0)" d="M 20 0 L 40 40 L 0 40 L -40 40 L -20 0 L 0 -40 z" stroke-linecap="round" />
</g>
<g transform="matrix(0.4289762344 0 0 0.4289762344 156.2622841058 249.9302900389)" id="HTTQnh-w1x_qe9NRnncyr"  >
<path style="stroke: none; stroke-width: 1; stroke-dasharray: none; stroke-linecap: butt; stroke-dashoffset: 0; stroke-linejoin: miter; stroke-miterlimit: 4; fill: rgb(129,0,255); fill-rule: nonzero; opacity: 1;" vector-effect="non-scaling-stroke"  transform=" translate(-40, -40)" d="M 0 0 L 80 80 L 0 80 L 0 0 z" stroke-linecap="round" />
</g>
<g transform="matrix(-0.4289762344 0 0 0.4289762344 241.9070581265 249.9302900374)" id="sdNsghkMOMrOMsWtG9ew1"  >
<path style="stroke: none; stroke-width: 1; stroke-dasharray: none; stroke-linecap: butt; stroke-dashoffset: 0; stroke-linejoin: miter; stroke-miterlimit: 4; fill: rgb(129,0,255); fill-rule: nonzero; opacity: 1;" vector-effect="non-scaling-stroke"  transform=" translate(-40, -40)" d="M 0 0 L 80 80 L 0 80 L 0 0 z" stroke-linecap="round" />
</g>
<g transform="matrix(2.584902163 -0.4094082824 0.415527858 2.6235396425 277.0158400145 195.4993863835)" id="XliwZ5EqEeKHUQ531P8C-"  >
<path style="stroke: rgb(129,0,255); stroke-width: 1; stroke-dasharray: none; stroke-linecap: butt; stroke-dashoffset: 0; stroke-linejoin: miter; stroke-miterlimit: 4; fill: rgb(129,0,255); fill-rule: nonzero; opacity: 1;" vector-effect="non-scaling-stroke"  transform=" translate(-0.000005, 0)" d="M 10.99905 -25.20993 L -10.99904 25.20993" stroke-linecap="round" />
</g>
<g transform="matrix(-2.584902163 -0.4094082824 -0.415527858 2.6235396425 121.6392008384 195.4993891621)" id="Ky2rmXakh_j28U4pXVjzB"  >
<path style="stroke: rgb(129,0,255); stroke-width: 1; stroke-dasharray: none; stroke-linecap: butt; stroke-dashoffset: 0; stroke-linejoin: miter; stroke-miterlimit: 4; fill: rgb(129,0,255); fill-rule: nonzero; opacity: 1;" vector-effect="non-scaling-stroke"  transform=" translate(-0.000005, 0)" d="M 10.99905 -25.20993 L -10.99904 25.20993" stroke-linecap="round" />
</g>
<g transform="matrix(-2.5027674526 -0.7651727988 -0.5888618238 1.9260802382 145.1706447935 181.8818305136)" id="dHvGsLVjaHI0fkYR-BmHp"  >
<path style="stroke: rgb(129,0,255); stroke-width: 1; stroke-dasharray: none; stroke-linecap: butt; stroke-dashoffset: 0; stroke-linejoin: miter; stroke-miterlimit: 4; fill: rgb(129,0,255); fill-rule: nonzero; opacity: 1;" vector-effect="non-scaling-stroke"  transform=" translate(-0.000005, 0)" d="M 10.99905 -25.20993 L -10.99904 25.20993" stroke-linecap="round" />
</g>
<g transform="matrix(2.5027674526 -0.7651727988 0.5888618238 1.9260802382 253.0245150036 181.8818334308)" id="lalumpNMtCgcVleO0Nmja"  >
<path style="stroke: rgb(129,0,255); stroke-width: 1; stroke-dasharray: none; stroke-linecap: butt; stroke-dashoffset: 0; stroke-linejoin: miter; stroke-miterlimit: 4; fill: rgb(129,0,255); fill-rule: nonzero; opacity: 1;" vector-effect="non-scaling-stroke"  transform=" translate(-0.000005, 0)" d="M 10.99905 -25.20993 L -10.99904 25.20993" stroke-linecap="round" />
</g>
<g transform="matrix(-2.4890321623 -0.8087355741 -0.5686220148 1.7500386138 212.2103282388 213.9456298673)" id="SabhmDun4rrNAQ-q1Q9Pp"  >
<path style="stroke: rgb(129,0,255); stroke-width: 1; stroke-dasharray: none; stroke-linecap: butt; stroke-dashoffset: 0; stroke-linejoin: miter; stroke-miterlimit: 4; fill: rgb(129,0,255); fill-rule: nonzero; opacity: 1;" vector-effect="non-scaling-stroke"  transform=" translate(-0.000005, 0)" d="M 10.99905 -25.20993 L -10.99904 25.20993" stroke-linecap="round" />
</g>
<g transform="matrix(2.4890321623 -0.8087355741 0.5686220148 1.7500386138 185.9559617096 213.9456270011)" id="Nyekv5EMM2VlvmU04B0td"  >
<path style="stroke: rgb(129,0,255); stroke-width: 1; stroke-dasharray: none; stroke-linecap: butt; stroke-dashoffset: 0; stroke-linejoin: miter; stroke-miterlimit: 4; fill: rgb(129,0,255); fill-rule: nonzero; opacity: 1;" vector-effect="non-scaling-stroke"  transform=" translate(-0.000005, 0)" d="M 10.99905 -25.20993 L -10.99904 25.20993" stroke-linecap="round" />
</g>
<g transform="matrix(2.5157403757 -0.7213769445 0.5558430616 1.9384551215 171.4683755102 181.7061991043)" id="BjCy_6K5DjgNGCy67Verz"  >
<path style="stroke: rgb(129,0,255); stroke-width: 1; stroke-dasharray: none; stroke-linecap: butt; stroke-dashoffset: 0; stroke-linejoin: miter; stroke-miterlimit: 4; fill: rgb(129,0,255); fill-rule: nonzero; opacity: 1;" vector-effect="non-scaling-stroke"  transform=" translate(-0.000005, 0)" d="M 10.99905 -25.20993 L -10.99904 25.20993" stroke-linecap="round" />
</g>
<g transform="matrix(-2.5157403757 -0.7213769445 -0.5558430616 1.9384551215 226.606888127 181.7062020951)" id="VY3VDQ_SdN_oUTzL6l9j_"  >
<path style="stroke: rgb(129,0,255); stroke-width: 1; stroke-dasharray: none; stroke-linecap: butt; stroke-dashoffset: 0; stroke-linejoin: miter; stroke-miterlimit: 4; fill: rgb(129,0,255); fill-rule: nonzero; opacity: 1;" vector-effect="non-scaling-stroke"  transform=" translate(-0.000005, 0)" d="M 10.99905 -25.20993 L -10.99904 25.20993" stroke-linecap="round" />
</g>
<g transform="matrix(-0.2895255539 0 0 -0.2895255539 140.0163798579 229.8997137422)" id="H7dGbIWP-9QkMywuMX7r9"  >
<path style="stroke: none; stroke-width: 1; stroke-dasharray: none; stroke-linecap: butt; stroke-dashoffset: 0; stroke-linejoin: miter; stroke-miterlimit: 4; fill: rgb(129,0,255); fill-rule: nonzero; opacity: 1;" vector-effect="non-scaling-stroke"  transform=" translate(-40, -40)" d="M 0 0 L 80 80 L 0 80 L 0 0 z" stroke-linecap="round" />
</g>
<g transform="matrix(0.2895255539 0 0 -0.2895255539 258.2274181814 229.8997137435)" id="3poXLPvzqwUBSIL7ku3PG"  >
<path style="stroke: none; stroke-width: 1; stroke-dasharray: none; stroke-linecap: butt; stroke-dashoffset: 0; stroke-linejoin: miter; stroke-miterlimit: 4; fill: rgb(129,0,255); fill-rule: nonzero; opacity: 1;" vector-effect="non-scaling-stroke"  transform=" translate(-40, -40)" d="M 0 0 L 80 80 L 0 80 L 0 0 z" stroke-linecap="round" />
</g>
<g transform="matrix(-0.116753563 -0.5057152416 0.2093990641 -0.0483435832 210.0269595807 154.4718402532)" id="lC3VyhsCli-T0N23lpX-U"  >
<path style="stroke: none; stroke-width: 1; stroke-dasharray: none; stroke-linecap: butt; stroke-dashoffset: 0; stroke-linejoin: miter; stroke-miterlimit: 4; fill: rgb(129,0,255); fill-rule: nonzero; opacity: 1;" vector-effect="non-scaling-stroke"  transform=" translate(-40, -40)" d="M 60 40 L 80 80 L 40 80 L 0 80 L 20 40 L 40 0 L 60 40 z" stroke-linecap="round" />
</g>
<g transform="matrix(0.116753563 -0.5057152416 -0.2093990641 -0.0483435832 188.1682053971 155.1319332539)" id="23irItpLWs77rTtSWOfCW"  >
<path style="stroke: none; stroke-width: 1; stroke-dasharray: none; stroke-linecap: butt; stroke-dashoffset: 0; stroke-linejoin: miter; stroke-miterlimit: 4; fill: rgb(129,0,255); fill-rule: nonzero; opacity: 1;" vector-effect="non-scaling-stroke"  transform=" translate(-40, -40)" d="M 60 40 L 80 80 L 40 80 L 0 80 L 20 40 L 40 0 L 60 40 z" stroke-linecap="round" />
</g>
<g transform="matrix(0.116753563 -0.5057152416 -0.2093990641 -0.0483435832 266.1980337304 161.7796869704)" id="RuqQFVflfbeJHsPvYxAZY"  >
<path style="stroke: none; stroke-width: 1; stroke-dasharray: none; stroke-linecap: butt; stroke-dashoffset: 0; stroke-linejoin: miter; stroke-miterlimit: 4; fill: rgb(129,0,255); fill-rule: nonzero; opacity: 1;" vector-effect="non-scaling-stroke"  transform=" translate(-40, -40)" d="M 60 40 L 80 80 L 40 80 L 0 80 L 20 40 L 40 0 L 60 40 z" stroke-linecap="round" />
</g>
<g transform="matrix(0.0806681735 -0.3494122475 0.2867584051 0.0662033943 165.4999217323 247.1239999731)" id="vPvOD1SVsAcrM9o8n6b_l"  >
<path style="stroke: none; stroke-width: 1; stroke-dasharray: none; stroke-linecap: butt; stroke-dashoffset: 0; stroke-linejoin: miter; stroke-miterlimit: 4; fill: rgb(129,0,255); fill-rule: nonzero; opacity: 1;" vector-effect="non-scaling-stroke"  transform=" translate(-40, -40)" d="M 60 40 L 80 80 L 40 80 L 0 80 L 20 40 L 40 0 L 60 40 z" stroke-linecap="round" />
</g>
<g transform="matrix(-0.0806681735 -0.3494122475 -0.2867584051 0.0662033943 232.6722575209 247.1239999719)" id="H1Sdu-5yzZ33XLzjB0axz"  >
<path style="stroke: none; stroke-width: 1; stroke-dasharray: none; stroke-linecap: butt; stroke-dashoffset: 0; stroke-linejoin: miter; stroke-miterlimit: 4; fill: rgb(129,0,255); fill-rule: nonzero; opacity: 1;" vector-effect="non-scaling-stroke"  transform=" translate(-40, -40)" d="M 60 40 L 80 80 L 40 80 L 0 80 L 20 40 L 40 0 L 60 40 z" stroke-linecap="round" />
</g>
</svg>